<svg width="137" height="28" viewBox="0 0 137 28" fill="none" xmlns="http://www.w3.org/2000/svg">
<path d="M7.08 -1.90735e-06H12.84V4.2H9.24C8.33333 4.76 7.88 5.88 7.88 7.56H12.04V11.76H7.88V28H2.56V11.76H0.36V7.56H2.56C2.56 4.09333 4.06667 1.57333 7.08 -1.90735e-06ZM22.9616 18.76H18.6816C18.1216 19.4533 17.8416 20.32 17.8416 21.36C17.8416 22.4 18.1349 23.2133 18.7216 23.8H22.9616V18.76ZM14.3616 7.56H24.2816C25.8816 8.52 26.9349 9.62667 27.4416 10.88C27.9482 12.1067 28.2016 13.7867 28.2016 15.92V21.92C28.2016 24.1333 28.2549 26.16 28.3616 28H23.8016L23.0816 26.56C22.0416 27.52 20.5749 28 18.6816 28H16.1616C13.8949 26.5067 12.7616 24.36 12.7616 21.56C12.7616 18.7333 13.9216 16.5067 16.2416 14.88H20.0016C21.0416 14.88 22.0149 15.2 22.9216 15.84V13.84C22.9216 12.8 22.4682 12.1067 21.5616 11.76H14.3616V7.56ZM36.6019 17.6C36.6019 18.72 36.7752 19.8667 37.1219 21.04C37.4685 22.1867 37.9485 23.1067 38.5619 23.8H44.5619V28H35.8019C32.6552 25.4933 31.0819 22.0267 31.0819 17.6C31.0819 13.1733 32.7619 9.82667 36.1219 7.56H44.5619V11.76H38.5619C37.2552 13.12 36.6019 15.0667 36.6019 17.6ZM55.6866 11.76H52.6866C52.2866 12.24 51.9532 12.9067 51.6866 13.76C51.4466 14.6133 51.3266 15.44 51.3266 16.24H57.0466C57.0999 15.44 56.9932 14.6133 56.7266 13.76C56.4599 12.88 56.1132 12.2133 55.6866 11.76ZM61.1266 23.8V28H50.9666C49.0999 26.7467 47.7799 25.2 47.0066 23.36C46.2599 21.4933 45.8866 19.6133 45.8866 17.72C45.8866 13.3467 47.5399 9.96 50.8466 7.56H57.3266C59.1132 8.86667 60.3266 10.2533 60.9666 11.72C61.6066 13.1867 61.9266 14.6667 61.9266 16.16C61.9266 17.6533 61.8066 18.9333 61.5666 20H51.6066C51.6866 20.6133 51.9132 21.32 52.2866 22.12C52.6866 22.8933 53.1132 23.4533 53.5666 23.8H61.1266ZM64.6106 -1.90735e-06H69.8906V9C70.4773 8.46667 71.024 8.09333 71.5306 7.88C72.064 7.66667 72.8506 7.56 73.8906 7.56H77.0906C78.2106 8.65333 79.0906 10.0667 79.7306 11.8C80.3706 13.5333 80.6906 15.44 80.6906 17.52C80.6906 21.9733 79.3573 25.4667 76.6906 28H72.8906C71.584 28 70.4906 27.5067 69.6106 26.52L68.8906 28H64.6106V-1.90735e-06ZM69.9306 23.8H73.7706C74.7573 22.12 75.2506 20.08 75.2506 17.68C75.2506 15.28 74.744 13.3067 73.7306 11.76H69.9306V23.8ZM95.7159 28H86.9959C84.3293 25.52 82.9959 22.1333 82.9959 17.84C82.9959 15.68 83.2893 13.8 83.8759 12.2C84.4893 10.6 85.4493 9.05333 86.7559 7.56H96.1159C97.5026 9.16 98.4493 10.72 98.9559 12.24C99.4626 13.7333 99.7159 15.6 99.7159 17.84C99.7159 22.1333 98.3826 25.52 95.7159 28ZM89.8359 23.8H92.8759C93.8359 21.9333 94.3159 19.8133 94.3159 17.44C94.3159 15.0667 93.8226 13.1733 92.8359 11.76H89.8359C88.8759 13.12 88.3959 15.0533 88.3959 17.56C88.3959 20.04 88.8759 22.12 89.8359 23.8ZM114.739 28H106.019C103.353 25.52 102.019 22.1333 102.019 17.84C102.019 15.68 102.313 13.8 102.899 12.2C103.513 10.6 104.473 9.05333 105.779 7.56H115.139C116.526 9.16 117.473 10.72 117.979 12.24C118.486 13.7333 118.739 15.6 118.739 17.84C118.739 22.1333 117.406 25.52 114.739 28ZM108.859 23.8H111.899C112.859 21.9333 113.339 19.8133 113.339 17.44C113.339 15.0667 112.846 13.1733 111.859 11.76H108.859C107.899 13.12 107.419 15.0533 107.419 17.56C107.419 20.04 107.899 22.12 108.859 23.8ZM121.603 28V-1.90735e-06H126.923V14.84H127.483L131.243 7.56H136.443L131.723 16.48L136.483 28H131.203L127.523 19.04H126.923V28H121.603Z" fill="#0056FE"/>
</svg>
