<svg width="25" height="22" viewBox="0 0 25 22" fill="none" xmlns="http://www.w3.org/2000/svg">
<path d="M12.35 7.854C13.95 7.92 14.3625 9.119 14.3875 9.68H16.625C16.525 7.502 14.7625 6.171 12.3125 6.171C9.55 6.171 7.5 7.7 7.5 11.154C7.5 13.288 8.6625 15.818 12.3 15.818C15.075 15.818 16.5625 14.003 16.6 12.573H14.3625C14.325 13.222 13.8 14.091 12.325 14.157C10.6875 14.113 10 12.991 10 11.154C10 7.975 11.6 7.876 12.35 7.854ZM12.5 0C5.6 0 0 4.928 0 11C0 17.072 5.6 22 12.5 22C19.4 22 25 17.072 25 11C25 4.928 19.4 0 12.5 0ZM12.5 19.8C6.9875 19.8 2.5 15.851 2.5 11C2.5 6.149 6.9875 2.2 12.5 2.2C18.0125 2.2 22.5 6.149 22.5 11C22.5 15.851 18.0125 19.8 12.5 19.8Z" fill="#666666"/>
</svg>
