<svg width="16" height="10" viewBox="0 0 16 10" fill="none" xmlns="http://www.w3.org/2000/svg">
<path d="M4.81818 9.17614C4 9.17614 3.28598 8.98864 2.67614 8.61364C2.06629 8.23864 1.5928 7.71402 1.25568 7.03977C0.918561 6.36553 0.75 5.57765 0.75 4.67614C0.75 3.77083 0.918561 2.97917 1.25568 2.30114C1.5928 1.62311 2.06629 1.09659 2.67614 0.721591C3.28598 0.346591 4 0.159091 4.81818 0.159091C5.63636 0.159091 6.35038 0.346591 6.96023 0.721591C7.57008 1.09659 8.04356 1.62311 8.38068 2.30114C8.7178 2.97917 8.88636 3.77083 8.88636 4.67614C8.88636 5.57765 8.7178 6.36553 8.38068 7.03977C8.04356 7.71402 7.57008 8.23864 6.96023 8.61364C6.35038 8.98864 5.63636 9.17614 4.81818 9.17614ZM4.82386 7.75C5.35417 7.75 5.79356 7.60985 6.14205 7.32955C6.49053 7.04924 6.74811 6.67614 6.91477 6.21023C7.08523 5.74432 7.17045 5.23106 7.17045 4.67045C7.17045 4.11364 7.08523 3.60227 6.91477 3.13636C6.74811 2.66667 6.49053 2.28977 6.14205 2.00568C5.79356 1.72159 5.35417 1.57955 4.82386 1.57955C4.28977 1.57955 3.84659 1.72159 3.49432 2.00568C3.14583 2.28977 2.88636 2.66667 2.71591 3.13636C2.54924 3.60227 2.46591 4.11364 2.46591 4.67045C2.46591 5.23106 2.54924 5.74432 2.71591 6.21023C2.88636 6.67614 3.14583 7.04924 3.49432 7.32955C3.84659 7.60985 4.28977 7.75 4.82386 7.75ZM10.7827 9V0.272727H12.4247V1.65909H12.5156C12.6747 1.18939 12.955 0.820075 13.3565 0.551136C13.7618 0.278409 14.2202 0.142045 14.7315 0.142045C14.8376 0.142045 14.9626 0.145833 15.1065 0.153409C15.2543 0.160984 15.3698 0.170454 15.4531 0.181818V1.80682C15.3849 1.78788 15.2637 1.76705 15.0895 1.74432C14.9152 1.7178 14.741 1.70455 14.5668 1.70455C14.1652 1.70455 13.8073 1.78977 13.4929 1.96023C13.1823 2.12689 12.9361 2.35985 12.7543 2.65909C12.5724 2.95455 12.4815 3.29167 12.4815 3.67045V9H10.7827Z" fill="black"/>
</svg>
